<svg width="165" height="52" viewBox="0 0 165 52" fill="none" xmlns="http://www.w3.org/2000/svg">
<g clip-path="url(#clip0_347_1581)">
<path d="M27.4102 37.36H42.2002L47.2702 21.5L56.9402 52.06H13.1702L22.6402 22.41L27.4102 37.36Z" fill="white"/>
<path d="M15.5501 16.0901H30.9001L35.5301 31.0501L45.0701 -0.159912H0.330078L10.5201 31.9501L15.5501 16.0901Z" fill="white"/>
<path d="M58.6702 27.7601V12.6301H61.4802L68.9102 25.3801H68.9502L68.9302 25.1601V12.6201H70.8802V27.7501H68.0702L60.6402 15.0001H60.6002L60.6202 15.2201V27.7301L58.6802 27.7501L58.6702 27.7601Z" fill="white"/>
<path d="M73.0403 27.7601L76.9303 12.6301H82.8703L86.7603 27.7601H84.8103L83.6203 23.3301H76.1603L74.9703 27.7601H73.0203H73.0403ZM76.6103 21.4901H83.2003L81.3603 14.4701H78.4403L76.6003 21.4901H76.6103Z" fill="white"/>
<path d="M94.3301 28.1902C93.1001 28.1902 92.0501 27.9702 91.1701 27.5202C90.2901 27.0702 89.6001 26.4902 89.1001 25.7702C88.5901 25.0502 88.2501 24.2702 88.0601 23.4402H90.0101C90.2401 24.2502 90.7201 24.9402 91.4501 25.5002C92.1801 26.0702 93.1401 26.3502 94.3401 26.3502C95.1801 26.3502 95.8801 26.2402 96.4501 26.0002C97.0201 25.7702 97.4401 25.4602 97.7101 25.0702C97.9801 24.6802 98.1201 24.2402 98.1201 23.7502C98.1201 23.2302 97.9401 22.8002 97.5901 22.4602C97.2401 22.1202 96.8001 21.8502 96.2701 21.6502C95.7401 21.4502 95.0201 21.2202 94.1001 20.9602C92.9301 20.6302 92.0001 20.3202 91.2901 20.0302C90.5801 19.7402 89.9801 19.3102 89.4701 18.7402C88.9701 18.1702 88.7101 17.4302 88.7101 16.5002C88.7101 15.7402 88.9301 15.0202 89.3701 14.3602C89.8101 13.7002 90.4401 13.1702 91.2601 12.7702C92.0801 12.3702 93.0301 12.1802 94.1101 12.1802C95.2501 12.1802 96.2301 12.3802 97.0501 12.7702C97.8701 13.1702 98.5201 13.6802 98.9801 14.3202C99.4501 14.9502 99.7701 15.6502 99.9401 16.3902H97.9901C97.7901 15.7302 97.3601 15.1702 96.7201 14.7002C96.0801 14.2302 95.2001 14.0102 94.1001 14.0102C93.3801 14.0102 92.7601 14.1202 92.2301 14.3602C91.7001 14.5902 91.3101 14.8902 91.0401 15.2702C90.7701 15.6502 90.6401 16.0602 90.6401 16.5002C90.6401 17.0002 90.8101 17.4202 91.1601 17.7502C91.5101 18.0802 91.9401 18.3502 92.4701 18.5502C93.0001 18.7502 93.7101 18.9802 94.6201 19.2202C95.7901 19.5502 96.7301 19.8702 97.4501 20.1702C98.1701 20.4702 98.7801 20.9102 99.2901 21.4902C99.8001 22.0702 100.05 22.8202 100.05 23.7402C100.05 24.5502 99.8201 25.2802 99.3701 25.9602C98.9201 26.6302 98.2601 27.1702 97.3901 27.5702C96.5301 27.9702 95.5001 28.1702 94.3201 28.1702L94.3301 28.1902Z" fill="white"/>
<path d="M102.76 27.7601V12.6301H113.35V14.4701H104.7V19.2201H111.72V21.0601H104.7V25.9201H113.35V27.7601H102.76Z" fill="white"/>
<path d="M115.94 27.7601V12.6301H126.53V14.4701H117.88V19.2201H124.9V21.0601H117.88V25.9201H126.53V27.7601H115.94Z" fill="white"/>
<path d="M129.12 27.7601V12.6301H132.25L136.79 22.3501H137.76L142.3 12.6301H145.43V27.7601H143.48V14.7901L143.5 14.5701H143.46L139.05 24.0801H135.48L131.07 14.5701H131.03L131.05 14.7901V27.7601H129.11H129.12Z" fill="white"/>
<path d="M149.01 17.9301L148.69 15.5501V12.6301H150.42V15.5501L150.1 17.9301H149.02H149.01Z" fill="white"/>
<path d="M159.06 28.1902C157.83 28.1902 156.78 27.9702 155.9 27.5202C155.02 27.0702 154.33 26.4902 153.83 25.7702C153.32 25.0502 152.98 24.2702 152.79 23.4402H154.74C154.97 24.2502 155.45 24.9402 156.18 25.5002C156.91 26.0702 157.87 26.3502 159.07 26.3502C159.91 26.3502 160.61 26.2402 161.18 26.0002C161.75 25.7702 162.17 25.4602 162.44 25.0702C162.71 24.6802 162.85 24.2402 162.85 23.7502C162.85 23.2302 162.67 22.8002 162.32 22.4602C161.97 22.1202 161.53 21.8502 161 21.6502C160.47 21.4502 159.75 21.2202 158.83 20.9602C157.66 20.6302 156.73 20.3202 156.02 20.0302C155.31 19.7402 154.71 19.3102 154.2 18.7402C153.7 18.1702 153.44 17.4302 153.44 16.5002C153.44 15.7402 153.66 15.0202 154.1 14.3602C154.54 13.7002 155.17 13.1702 155.99 12.7702C156.81 12.3702 157.76 12.1802 158.84 12.1802C159.98 12.1802 160.96 12.3802 161.78 12.7702C162.6 13.1702 163.25 13.6802 163.71 14.3202C164.18 14.9502 164.5 15.6502 164.67 16.3902H162.72C162.52 15.7302 162.09 15.1702 161.45 14.7002C160.81 14.2302 159.93 14.0102 158.83 14.0102C158.11 14.0102 157.49 14.1202 156.96 14.3602C156.43 14.5902 156.04 14.8902 155.77 15.2702C155.5 15.6502 155.37 16.0602 155.37 16.5002C155.37 17.0002 155.54 17.4202 155.89 17.7502C156.24 18.0802 156.67 18.3502 157.2 18.5502C157.73 18.7502 158.44 18.9802 159.35 19.2202C160.52 19.5502 161.46 19.8702 162.18 20.1702C162.9 20.4702 163.51 20.9102 164.02 21.4902C164.53 22.0702 164.78 22.8202 164.78 23.7402C164.78 24.5502 164.55 25.2802 164.1 25.9602C163.65 26.6302 162.99 27.1702 162.12 27.5702C161.26 27.9702 160.23 28.1702 159.05 28.1702L159.06 28.1902Z" fill="white"/>
<path d="M106.7 40.3201C105.7 40.3201 104.86 39.9901 104.2 39.3101C103.53 38.6401 103.2 37.8101 103.2 36.8301C103.2 35.8501 103.53 35.0201 104.2 34.3501C104.87 33.6801 105.7 33.3401 106.7 33.3401C107.36 33.3401 107.95 33.5001 108.47 33.8101C108.99 34.1301 109.38 34.5501 109.62 35.0801L108.9 35.4901C108.72 35.0901 108.44 34.7701 108.04 34.5401C107.64 34.3101 107.2 34.1901 106.7 34.1901C105.96 34.1901 105.34 34.4501 104.84 34.9601C104.34 35.4701 104.08 36.0901 104.08 36.8301C104.08 37.5701 104.33 38.1901 104.84 38.7001C105.35 39.2101 105.97 39.4701 106.7 39.4701C107.2 39.4701 107.64 39.3501 108.03 39.1201C108.42 38.8801 108.73 38.5701 108.95 38.1701L109.68 38.6001C109.4 39.1301 109 39.5601 108.47 39.8701C107.94 40.1801 107.35 40.3401 106.7 40.3401V40.3201Z" fill="white"/>
<path d="M116.47 39.3201C115.79 39.9901 114.96 40.3301 113.99 40.3301C113.02 40.3301 112.19 40.0001 111.51 39.3201C110.83 38.6501 110.49 37.8201 110.49 36.8401C110.49 35.8601 110.83 35.0301 111.51 34.3601C112.19 33.6901 113.02 33.3501 113.99 33.3501C114.96 33.3501 115.79 33.6901 116.47 34.3601C117.15 35.0301 117.49 35.8601 117.49 36.8401C117.49 37.8201 117.15 38.6501 116.47 39.3201ZM112.12 38.7001C112.63 39.2101 113.25 39.4701 113.98 39.4701C114.71 39.4701 115.34 39.2201 115.84 38.7001C116.35 38.1901 116.6 37.5701 116.6 36.8301C116.6 36.0901 116.35 35.4701 115.84 34.9601C115.33 34.4501 114.71 34.1901 113.98 34.1901C113.25 34.1901 112.62 34.4501 112.12 34.9601C111.62 35.4701 111.36 36.0901 111.36 36.8301C111.36 37.5701 111.61 38.1901 112.12 38.7001Z" fill="white"/>
<path d="M122.07 33.3401C122.88 33.3401 123.51 33.5901 123.98 34.0801C124.45 34.5701 124.68 35.2401 124.68 36.0701V40.1601H123.8V36.0701C123.8 35.4801 123.64 35.0101 123.33 34.6801C123.01 34.3501 122.57 34.1901 121.99 34.1901C121.35 34.1901 120.83 34.3901 120.43 34.8001C120.03 35.2001 119.83 35.8301 119.83 36.6701V40.1601H118.95V33.5001H119.83V34.5401C120.33 33.7401 121.07 33.3401 122.07 33.3401Z" fill="white"/>
<path d="M127.07 35.2301C127.07 35.5301 127.2 35.7601 127.47 35.9401C127.74 36.1201 128.07 36.2601 128.45 36.3701C128.83 36.4801 129.21 36.5901 129.6 36.7001C129.98 36.8101 130.3 37.0101 130.57 37.2901C130.83 37.5801 130.96 37.9501 130.96 38.4101C130.96 38.9801 130.74 39.4401 130.29 39.8001C129.84 40.1501 129.26 40.3301 128.55 40.3301C127.91 40.3301 127.37 40.1901 126.92 39.9001C126.47 39.6201 126.16 39.2501 125.98 38.7901L126.73 38.3501C126.85 38.7001 127.08 38.9701 127.4 39.1701C127.72 39.3701 128.11 39.4701 128.55 39.4701C128.99 39.4701 129.35 39.3801 129.64 39.2101C129.93 39.0401 130.08 38.7701 130.08 38.4001C130.08 38.1001 129.95 37.8601 129.68 37.6801C129.41 37.5001 129.09 37.3601 128.71 37.2501C128.33 37.1401 127.95 37.0301 127.57 36.9201C127.19 36.8101 126.86 36.6201 126.6 36.3401C126.33 36.0601 126.2 35.7001 126.2 35.2401C126.2 34.7001 126.42 34.2501 126.85 33.8801C127.28 33.5201 127.82 33.3401 128.48 33.3401C129.02 33.3401 129.5 33.4601 129.91 33.7101C130.32 33.9501 130.62 34.2801 130.82 34.7001L130.09 35.1301C129.83 34.5101 129.3 34.2001 128.49 34.2001C128.11 34.2001 127.78 34.2901 127.5 34.4701C127.22 34.6501 127.09 34.9101 127.09 35.2401L127.07 35.2301Z" fill="white"/>
<path d="M137.05 33.5002H137.93V40.1602H137.05V39.1202C136.55 39.9202 135.81 40.3202 134.81 40.3202C134 40.3202 133.37 40.0702 132.9 39.5802C132.43 39.0902 132.2 38.4202 132.2 37.5902V33.5002H133.08V37.5902C133.08 38.1802 133.24 38.6502 133.55 38.9802C133.86 39.3102 134.31 39.4702 134.89 39.4702C135.53 39.4702 136.05 39.2702 136.45 38.8602C136.85 38.4602 137.05 37.8302 137.05 36.9902V33.5002Z" fill="white"/>
<path d="M139.79 40.1602V30.4402H140.67V40.1602H139.79Z" fill="white"/>
<path d="M146.06 34.3601H144.14V38.4001C144.14 38.7601 144.21 39.0201 144.35 39.1801C144.49 39.3301 144.7 39.4101 144.99 39.4201C145.28 39.4301 145.63 39.4201 146.06 39.4001V40.1701C145.13 40.3101 144.43 40.2401 143.96 39.9701C143.49 39.6901 143.26 39.1701 143.26 38.4001V34.3601H141.86V33.5101H143.26V31.9101L144.14 31.6401V33.5001H146.06V34.3501V34.3601Z" fill="white"/>
<path d="M148.42 31.9101C148.3 32.0301 148.15 32.1001 147.97 32.1001C147.79 32.1001 147.64 32.0401 147.52 31.9101C147.4 31.7801 147.33 31.6401 147.33 31.4601C147.33 31.2801 147.39 31.1301 147.52 31.0101C147.65 30.8901 147.79 30.8201 147.97 30.8201C148.15 30.8201 148.3 30.8801 148.42 31.0101C148.54 31.1301 148.61 31.2901 148.61 31.4601C148.61 31.6301 148.55 31.7901 148.42 31.9101ZM147.53 40.1601V33.5001H148.41V40.1601H147.53Z" fill="white"/>
<path d="M153.38 33.3401C154.19 33.3401 154.82 33.5901 155.29 34.0801C155.76 34.5701 155.99 35.2401 155.99 36.0701V40.1601H155.11V36.0701C155.11 35.4801 154.95 35.0101 154.64 34.6801C154.32 34.3501 153.88 34.1901 153.3 34.1901C152.66 34.1901 152.14 34.3901 151.74 34.8001C151.34 35.2001 151.14 35.8301 151.14 36.6701V40.1601H150.26V33.5001H151.14V34.5401C151.64 33.7401 152.38 33.3401 153.38 33.3401Z" fill="white"/>
<path d="M163.42 33.5001H164.3V39.8901C164.3 40.8501 163.97 41.6001 163.31 42.1501C162.65 42.7001 161.87 42.9801 160.95 42.9801C159.39 42.9801 158.34 42.4401 157.79 41.3601L158.56 40.9201C158.96 41.7301 159.75 42.1301 160.94 42.1301C161.7 42.1301 162.3 41.9301 162.74 41.5301C163.18 41.1201 163.4 40.5801 163.4 39.9001V38.8601C162.79 39.8401 161.89 40.3301 160.71 40.3301C159.76 40.3301 158.95 39.9901 158.28 39.3201C157.61 38.6501 157.27 37.8201 157.27 36.8401C157.27 35.8601 157.61 35.0401 158.28 34.3601C158.95 33.6801 159.76 33.3501 160.71 33.3501C161.89 33.3501 162.79 33.8401 163.4 34.8201V33.5101L163.42 33.5001ZM158.94 38.7001C159.45 39.2101 160.07 39.4701 160.8 39.4701C161.53 39.4701 162.16 39.2201 162.66 38.7001C163.17 38.1901 163.42 37.5701 163.42 36.8301C163.42 36.0901 163.17 35.4701 162.66 34.9601C162.15 34.4501 161.53 34.1901 160.8 34.1901C160.07 34.1901 159.44 34.4501 158.94 34.9601C158.44 35.4701 158.18 36.0901 158.18 36.8301C158.18 37.5701 158.43 38.1901 158.94 38.7001Z" fill="white"/>
</g>
<defs>
<clipPath id="clip0_347_1581">
<rect width="165" height="52" fill="white"/>
</clipPath>
</defs>
</svg>
